<?xml version="1.0" encoding="iso-8859-1"?>
<!-- Generator: Adobe Illustrator 17.1.0, SVG Export Plug-In . SVG Version: 6.00 Build 0)  -->
<!DOCTYPE svg PUBLIC "-//W3C//DTD SVG 1.1//EN" "http://www.w3.org/Graphics/SVG/1.1/DTD/svg11.dtd">
<svg version="1.1" id="Capa_1" xmlns="http://www.w3.org/2000/svg" xmlns:xlink="http://www.w3.org/1999/xlink" x="0px" y="0px"
	 viewBox="0 0 298 298" style="enable-background:new 0 0 298 298;" xml:space="preserve">
<g>
	<path d="M170,248v0.02c3,0,5,0.166,7,0.468v-20.102c-2,0.395-4.313,0.613-6.716,0.613h-41.903c-2.055,0-4.381-0.154-6.381-0.445
		v19.792c2-0.226,4.321-0.347,6.381-0.347H170z"/>
	<path d="M222.333,129H219v-18.793c6-4.586,9-11.487,9-19.207V69c0-13.807-10.859-25-24.667-25h-9.753
		c0-0.121,0.009-0.241,0.009-0.363C193.589,19.575,174.014,0,149.953,0c-24.061,0-43.637,19.575-43.637,43.637
		c0,0.122,0.008,0.242,0.01,0.363H95.333C81.525,44,70,55.193,70,69v22c0,7.24,3,13.758,8,18.324V129h-1.667
		C62.525,129,51,140.193,51,154v50c0,13.807,11.525,25,25.333,25H78v29c0,7.85,3.62,14.85,9.278,19.434
		C88.608,267.059,96,258.25,106,253.043v-30.45c-11-7.247-19-19.942-19-34.443v-34.34c0-14.501,8-27.179,19-34.415V44h16.325
		c-0.001-0.121-0.009-0.241-0.009-0.363c0-15.264,12.373-27.637,27.637-27.637c15.263,0,27.636,12.373,27.636,27.637
		c0,0.122-0.008,0.242-0.009,0.363H193v76.04c11,7.331,18,19.695,18,33.77v34.34c0,14.074-7,26.454-18,33.798v31.599
		c10,5.12,16.105,13.399,17.627,23.118C215.763,272.085,219,265.422,219,258v-29h3.333C236.141,229,247,217.807,247,204v-50
		C247,140.193,236.141,129,222.333,129z"/>
	<path d="M122,113.445c2-0.291,4.326-0.445,6.381-0.445h41.903c2.403,0,4.716,0.218,6.716,0.612V44h-55V113.445z"/>
	<path d="M128.381,213h41.903c13.75,0,24.716-11.101,24.716-24.851V179h-92v9.149C103,201.899,114.631,213,128.381,213z"/>
	<path d="M103,163h92v-9.19c0-13.75-10.966-24.81-24.716-24.81h-41.903C114.631,129,103,140.06,103,153.81V163z"/>
	<path d="M195.297,281c0-9.328-11.238-17-24.988-17h-41.928c-13.75,0-25,7.672-25,17c0,9.326,11.25,17,25,17h41.903
		C184.034,298,195.297,290.326,195.297,281z"/>
</g>
<g>
</g>
<g>
</g>
<g>
</g>
<g>
</g>
<g>
</g>
<g>
</g>
<g>
</g>
<g>
</g>
<g>
</g>
<g>
</g>
<g>
</g>
<g>
</g>
<g>
</g>
<g>
</g>
<g>
</g>
</svg>
