<?xml version="1.0" encoding="iso-8859-1"?>
<!-- Generator: Adobe Illustrator 17.1.0, SVG Export Plug-In . SVG Version: 6.00 Build 0)  -->
<!DOCTYPE svg PUBLIC "-//W3C//DTD SVG 1.1//EN" "http://www.w3.org/Graphics/SVG/1.1/DTD/svg11.dtd">
<svg version="1.1" id="Capa_1" xmlns="http://www.w3.org/2000/svg" xmlns:xlink="http://www.w3.org/1999/xlink" x="0px" y="0px"
	 viewBox="0 0 297.666 297.666" style="enable-background:new 0 0 297.666 297.666;" xml:space="preserve">
<g>
	<path d="M239.334,90.499c-19.924,0-37.539,10.047-48.067,25.334H106.4c-10.528-15.287-28.143-25.334-48.066-25.334
		C26.169,90.499,0,116.668,0,148.833s26.169,58.334,58.334,58.334c19.924,0,37.538-10.047,48.066-25.334h84.866
		c10.528,15.287,28.143,25.334,48.067,25.334c32.164,0,58.332-26.169,58.332-58.334S271.498,90.499,239.334,90.499z
		 M239.334,175.167c-14.521,0-26.334-11.814-26.334-26.334c0-14.52,11.813-26.334,26.334-26.334
		c14.519,0,26.332,11.813,26.332,26.334C265.666,163.354,253.853,175.167,239.334,175.167z M58.334,175.167
		C43.813,175.167,32,163.354,32,148.833c0-14.52,11.813-26.334,26.334-26.334c14.519,0,26.332,11.813,26.332,26.334
		C84.666,163.354,72.853,175.167,58.334,175.167z"/>
</g>
<g>
</g>
<g>
</g>
<g>
</g>
<g>
</g>
<g>
</g>
<g>
</g>
<g>
</g>
<g>
</g>
<g>
</g>
<g>
</g>
<g>
</g>
<g>
</g>
<g>
</g>
<g>
</g>
<g>
</g>
</svg>
