<?xml version="1.0" encoding="iso-8859-1"?>
<!-- Generator: Adobe Illustrator 17.1.0, SVG Export Plug-In . SVG Version: 6.00 Build 0)  -->
<!DOCTYPE svg PUBLIC "-//W3C//DTD SVG 1.1//EN" "http://www.w3.org/Graphics/SVG/1.1/DTD/svg11.dtd">
<svg version="1.1" id="Capa_1" xmlns="http://www.w3.org/2000/svg" xmlns:xlink="http://www.w3.org/1999/xlink" x="0px" y="0px"
	 viewBox="0 0 296.333 296.333" style="enable-background:new 0 0 296.333 296.333;" xml:space="preserve">
<g>
	<path d="M74.166,100v31.999l20.52,19.7c-11.513,5.024-19.52,16.531-19.52,29.93v82.075c0,18.02,14.479,32.629,32.499,32.629
		c18.021,0,32.501-14.609,32.501-32.629v-82.075c0-13.313-7.908-24.757-19.304-29.831L140.167,132v-32l-32.5,31.667L74.166,100z
		 M107.166,264c0,4.418-3.582,8-8,8c-4.418,0-8-3.582-8-8v-83c0-4.418,3.582-8,8-8c4.418,0,8,3.582,8,8V264z"/>
	<path d="M222.167,0l-32.5,31.667L156.167,0v31.999l20.52,19.7c-11.513,5.024-19.52,16.531-19.52,29.93v82.075
		c0,18.02,14.479,32.629,32.499,32.629c18.021,0,32.501-14.609,32.501-32.629V81.629c0-13.313-7.908-24.757-19.304-29.831
		L222.167,32V0z M189.167,164c0,4.418-3.582,8-8,8s-8-3.582-8-8V81c0-4.418,3.582-8,8-8s8,3.582,8,8V164z"/>
</g>
<g>
</g>
<g>
</g>
<g>
</g>
<g>
</g>
<g>
</g>
<g>
</g>
<g>
</g>
<g>
</g>
<g>
</g>
<g>
</g>
<g>
</g>
<g>
</g>
<g>
</g>
<g>
</g>
<g>
</g>
</svg>
