<?xml version="1.0" encoding="iso-8859-1"?>
<!-- Generator: Adobe Illustrator 17.1.0, SVG Export Plug-In . SVG Version: 6.00 Build 0)  -->
<!DOCTYPE svg PUBLIC "-//W3C//DTD SVG 1.1//EN" "http://www.w3.org/Graphics/SVG/1.1/DTD/svg11.dtd">
<svg version="1.1" id="Capa_1" xmlns="http://www.w3.org/2000/svg" xmlns:xlink="http://www.w3.org/1999/xlink" x="0px" y="0px"
	 viewBox="0 0 297 297" style="enable-background:new 0 0 297 297;" xml:space="preserve">
<g>
	<path d="M251.333,33H231v-4c0-15.99-12.677-29-28.667-29h-141C45.343,0,32,13.01,32,29v79c-8,0-15,6.716-15,15v25h148v-25
		c0-8.284-6.383-15-14.667-15H147V93c0-7.168,6.165-13,13.333-13h10C177.501,80,183,85.832,183,93v92c0,7.168-5.499,13-12.667,13
		H165v-17H17v50h44.333H165v-17h5.333c15.99,0,28.667-13.01,28.667-29V93c0-15.99-12.677-29-28.667-29h-10
		C144.343,64,131,77.01,131,93v15h-0.667c-6.976,0-12.821,4.768-14.5,11.218c-1.679-6.45-7.524-11.218-14.5-11.218H99V62
		c0-7.168,6.165-13,13.333-13H215v169c0,7.168-5.499,13-12.667,13H165v16h37.333c15.99,0,28.667-13.01,28.667-29V49h20.333
		C258.501,49,264,54.832,264,62v189c0,7.168-5.499,13-12.667,13h-86h-53H17v18c0,8.284,7.049,15,15.333,15h20
		c6.976,0,12.821-4.768,14.5-11.218c1.679,6.45,7.524,11.218,14.5,11.218h20c6.976,0,12.821-4.768,14.5-11.218
		c1.679,6.45,7.524,11.218,14.5,11.218h20c8.284,0,14.667-6.716,14.667-15v-2h86.333c15.99,0,28.667-13.01,28.667-29V62
		C280,46.01,267.323,33,251.333,33z M112.333,33C96.343,33,83,46.01,83,62v46h-1.667c-6.976,0-12.821,4.768-14.5,11.218
		c-1.679-6.45-7.524-11.218-14.5-11.218H48V29c0-7.168,6.165-13,13.333-13h141C209.501,16,215,21.832,215,29v4H112.333z"/>
</g>
<g>
</g>
<g>
</g>
<g>
</g>
<g>
</g>
<g>
</g>
<g>
</g>
<g>
</g>
<g>
</g>
<g>
</g>
<g>
</g>
<g>
</g>
<g>
</g>
<g>
</g>
<g>
</g>
<g>
</g>
</svg>
