<?xml version="1.0" encoding="iso-8859-1"?>
<!-- Generator: Adobe Illustrator 17.1.0, SVG Export Plug-In . SVG Version: 6.00 Build 0)  -->
<!DOCTYPE svg PUBLIC "-//W3C//DTD SVG 1.1//EN" "http://www.w3.org/Graphics/SVG/1.1/DTD/svg11.dtd">
<svg version="1.1" id="Capa_1" xmlns="http://www.w3.org/2000/svg" xmlns:xlink="http://www.w3.org/1999/xlink" x="0px" y="0px"
	 viewBox="0 0 297.368 297.368" style="enable-background:new 0 0 297.368 297.368;" xml:space="preserve">
<g>
	<path d="M65.325,247.368h224.226c4.342-8.387,6.8-17.905,6.8-28c0-33.689-27.31-61-61-61l-70.334-0.467
		c-13.749-0.11-25.456-11.441-26.016-25.18l-4.634-113.909c-0.56-13.739-11.794-21.752-24.966-17.807L25.133,26.196
		C11.962,30.141,1.018,44.619,1.018,58.369v126C36.018,184.368,64.787,212.539,65.325,247.368z M112.737,177.329
		c-0.21,0.02-0.41,0.03-0.62,0.03c-4.14,0-7.649-3.2-7.97-7.4c-0.33-4.4,2.97-8.24,7.37-8.58c4.41-0.33,8.25,2.96,8.59,7.37
		C120.438,173.159,117.138,176.998,112.737,177.329z M141.697,187.938c0.23-4.409,4-7.79,8.41-7.559c4.41,0.24,7.8,4,7.56,8.42
		c-0.22,4.26-3.75,7.57-7.979,7.57c-0.14,0-0.29,0-0.43-0.01C144.848,196.118,141.457,192.359,141.697,187.938z M197.617,190.928
		c-0.229,4.271-3.76,7.58-7.99,7.58c-0.14,0-0.279-0.01-0.43-0.02c-4.41-0.23-7.8-4-7.56-8.41c0.239-4.42,4-7.8,8.42-7.561
		C194.468,182.748,197.848,186.518,197.617,190.928z M117.068,128.868c0.34,4.399-2.96,8.24-7.37,8.58
		c-0.21,0.02-0.41,0.02-0.61,0.02c-4.149,0-7.649-3.189-7.97-7.39c-0.34-4.41,2.96-8.25,7.37-8.59
		C112.888,121.159,116.737,124.458,117.068,128.868z M114.028,88.978c0.34,4.41-2.96,8.25-7.37,8.58c-0.2,0.021-0.41,0.03-0.62,0.03
		c-4.14,0-7.64-3.2-7.96-7.4c-0.34-4.399,2.96-8.239,7.37-8.579C109.848,81.279,113.697,84.569,114.028,88.978z M102.407,41.728
		c4.41-0.34,8.25,2.96,8.59,7.37c0.33,4.4-2.97,8.25-7.37,8.58c-0.21,0.021-0.409,0.021-0.619,0.021c-4.141,0-7.65-3.19-7.971-7.391
		C94.707,45.909,98.008,42.058,102.407,41.728z"/>
	<polygon points="1.018,263.368 1.018,297.368 50.018,297.368 50.018,280.368 66.018,280.368 66.018,297.368 98.018,297.368 
		98.018,280.368 149.018,280.368 149.018,297.368 181.018,297.368 181.018,280.368 199.018,280.368 199.018,297.368 
		231.018,297.368 231.018,280.368 249.018,280.368 249.018,297.368 281.018,297.368 281.018,263.368 	"/>
	<path d="M49.325,247.368c-0.536-26.006-22.308-47-48.308-47v47H49.325z"/>
</g>
<g>
</g>
<g>
</g>
<g>
</g>
<g>
</g>
<g>
</g>
<g>
</g>
<g>
</g>
<g>
</g>
<g>
</g>
<g>
</g>
<g>
</g>
<g>
</g>
<g>
</g>
<g>
</g>
<g>
</g>
</svg>
