<?xml version="1.0" encoding="iso-8859-1"?>
<!-- Generator: Adobe Illustrator 17.1.0, SVG Export Plug-In . SVG Version: 6.00 Build 0)  -->
<!DOCTYPE svg PUBLIC "-//W3C//DTD SVG 1.1//EN" "http://www.w3.org/Graphics/SVG/1.1/DTD/svg11.dtd">
<svg version="1.1" id="Capa_1" xmlns="http://www.w3.org/2000/svg" xmlns:xlink="http://www.w3.org/1999/xlink" x="0px" y="0px"
	 viewBox="0 0 297 297" style="enable-background:new 0 0 297 297;" xml:space="preserve">
<g>
	<path d="M214.167,100.667C214.167,64.032,185.302,0,148.667,0h-0.334c-36.635,0-67.166,64.032-67.166,100.667V247h133V100.667z
		 M134.926,57.86c-8.924,15.779-13.759,33.478-13.759,42.807V216c0,4.418-3.582,8-8,8s-8-3.582-8-8V100.667
		c0-11.439,5.01-31.548,15.831-50.684c2.176-3.845,7.054-5.198,10.902-3.025C135.747,49.133,137.101,54.014,134.926,57.86z"/>
	<path d="M222.5,265h-148c-8.837,0-16,7.163-16,16s7.163,16,16,16h148c8.837,0,16-7.163,16-16S231.337,265,222.5,265z"/>
</g>
<g>
</g>
<g>
</g>
<g>
</g>
<g>
</g>
<g>
</g>
<g>
</g>
<g>
</g>
<g>
</g>
<g>
</g>
<g>
</g>
<g>
</g>
<g>
</g>
<g>
</g>
<g>
</g>
<g>
</g>
</svg>
