<?xml version="1.0" encoding="iso-8859-1"?>
<!-- Generator: Adobe Illustrator 17.1.0, SVG Export Plug-In . SVG Version: 6.00 Build 0)  -->
<!DOCTYPE svg PUBLIC "-//W3C//DTD SVG 1.1//EN" "http://www.w3.org/Graphics/SVG/1.1/DTD/svg11.dtd">
<svg version="1.1" id="Capa_1" xmlns="http://www.w3.org/2000/svg" xmlns:xlink="http://www.w3.org/1999/xlink" x="0px" y="0px"
	 viewBox="0 0 296.123 296.123" style="enable-background:new 0 0 296.123 296.123;" xml:space="preserve">
<path d="M166.876,107.123h-2.7c0.589-9.803,1.951-17.859,3.189-25.174c2.981-17.606,5.372-31.815-9.458-48.594l11.902-17.073
	l-18.899-1.206L139.448,0l-6.987,17.601l-17.881,6.242l14.582,12.084l0.41,18.934l16.596-10.665
	c9.526,10.795,8.212,18.602,5.422,35.081c-1.289,7.613-2.819,16.688-3.435,27.846h-2.279c-8.284,0-15.333,6.716-15.333,15v159
	c0,8.284,7.049,15,15.333,15h21c8.284,0,14.667-6.716,14.667-15v-159C181.543,113.839,175.16,107.123,166.876,107.123z"/>
<g>
</g>
<g>
</g>
<g>
</g>
<g>
</g>
<g>
</g>
<g>
</g>
<g>
</g>
<g>
</g>
<g>
</g>
<g>
</g>
<g>
</g>
<g>
</g>
<g>
</g>
<g>
</g>
<g>
</g>
</svg>
