<?xml version="1.0" encoding="iso-8859-1"?>
<!-- Generator: Adobe Illustrator 17.1.0, SVG Export Plug-In . SVG Version: 6.00 Build 0)  -->
<!DOCTYPE svg PUBLIC "-//W3C//DTD SVG 1.1//EN" "http://www.w3.org/Graphics/SVG/1.1/DTD/svg11.dtd">
<svg version="1.1" id="Capa_1" xmlns="http://www.w3.org/2000/svg" xmlns:xlink="http://www.w3.org/1999/xlink" x="0px" y="0px"
	 viewBox="0 0 297 297" style="enable-background:new 0 0 297 297;" xml:space="preserve">
<g>
	<path d="M272.333,115.5H270v-66c0-18.196-14.471-33-32.667-33h-178C41.137,16.5,26,31.304,26,49.5v66h-0.667
		C11.525,115.5,0,126.693,0,140.5v115c0,13.807,11.525,25,25.333,25h247c13.808,0,24.667-11.193,24.667-25v-115
		C297,126.693,286.141,115.5,272.333,115.5z M42,49.5c0-9.374,7.959-17,17.333-17h178c9.374,0,16.667,7.626,16.667,17v66H42V49.5z
		 M164,246.5h-32v-32H99v-32h33v-33h32v33h32v32h-32V246.5z"/>
</g>
<g>
</g>
<g>
</g>
<g>
</g>
<g>
</g>
<g>
</g>
<g>
</g>
<g>
</g>
<g>
</g>
<g>
</g>
<g>
</g>
<g>
</g>
<g>
</g>
<g>
</g>
<g>
</g>
<g>
</g>
</svg>
