<?xml version="1.0" encoding="iso-8859-1"?>
<!-- Generator: Adobe Illustrator 17.1.0, SVG Export Plug-In . SVG Version: 6.00 Build 0)  -->
<!DOCTYPE svg PUBLIC "-//W3C//DTD SVG 1.1//EN" "http://www.w3.org/Graphics/SVG/1.1/DTD/svg11.dtd">
<svg version="1.1" id="Capa_1" xmlns="http://www.w3.org/2000/svg" xmlns:xlink="http://www.w3.org/1999/xlink" x="0px" y="0px"
	 viewBox="0 0 297 297" style="enable-background:new 0 0 297 297;" xml:space="preserve">
<g>
	<path d="M57,108.576V76.575c31,8.807,61,6.217,92,1.877c0-19.672,0-39.345,0-59.017c-31,4.342-61,6.937-92-1.798V16
		c0-8.837-7.163-16-16-16S25,7.163,25,16v265c0,8.837,7.163,16,16,16s16-7.163,16-16V166.638c31,8.734,61,6.138,92,1.794
		c0-19.325,0-38.65,0-57.975C118,114.796,88,117.384,57,108.576z"/>
	<path d="M181,105.691c0,19.32,0,38.643,0,57.964c30-4.334,60-7.095,91,0.972c0-19.254,0-38.509,0-57.764
		C242,98.635,211,101.361,181,105.691z"/>
	<path d="M272,74.863c0-19.746,0-39.491,0-59.237c-31-8.06-61-5.299-91-0.966c0,19.676,0,39.352,0,59.027
		C211,69.357,242,66.632,272,74.863z"/>
</g>
<g>
</g>
<g>
</g>
<g>
</g>
<g>
</g>
<g>
</g>
<g>
</g>
<g>
</g>
<g>
</g>
<g>
</g>
<g>
</g>
<g>
</g>
<g>
</g>
<g>
</g>
<g>
</g>
<g>
</g>
</svg>
