<?xml version="1.0" encoding="iso-8859-1"?>
<!-- Generator: Adobe Illustrator 17.1.0, SVG Export Plug-In . SVG Version: 6.00 Build 0)  -->
<!DOCTYPE svg PUBLIC "-//W3C//DTD SVG 1.1//EN" "http://www.w3.org/Graphics/SVG/1.1/DTD/svg11.dtd">
<svg version="1.1" id="Capa_1" xmlns="http://www.w3.org/2000/svg" xmlns:xlink="http://www.w3.org/1999/xlink" x="0px" y="0px"
	 viewBox="0 0 297.114 297.114" style="enable-background:new 0 0 297.114 297.114;" xml:space="preserve">
<g>
	<path d="M289.938,219.601c-9.568-9.567-25.08-9.567-34.648,0l-6.011,6.011l-25.859-25.859
		c23.809-20.871,38.845-51.506,38.845-85.654c0-62.891-50.983-113.874-113.874-113.874S34.516,51.208,34.516,114.098
		c0,34.234,15.11,64.937,39.022,85.812l-25.702,25.702l-6.011-6.011c-9.568-9.567-25.08-9.567-34.649,0
		c-9.568,9.568-9.568,25.08,0,34.648l35.356,35.355c9.568,9.568,25.08,9.568,34.648,0c9.567-9.568,9.567-25.08,0-34.648
		l-6.718-6.718l20.642-20.643c-0.679,3.553-1.048,7.214-1.048,10.961c0,32.165,26.168,58.333,58.333,58.333
		s58.333-26.168,58.333-58.333c0-3.89-0.391-7.688-1.12-11.367l21.049,21.049l-6.718,6.718c-9.567,9.568-9.567,25.08,0,34.648
		c9.568,9.568,25.08,9.568,34.648,0l35.355-35.355C299.506,244.681,299.506,229.169,289.938,219.601z M174.723,238.557
		c0,14.521-11.813,26.333-26.333,26.333c-14.521,0-26.333-11.812-26.333-26.333c0-14.52,11.812-26.333,26.333-26.333
		C162.911,212.224,174.723,224.037,174.723,238.557z M197.96,82.105c18.253,0,33.049,14.795,33.049,33.048
		c0,18.251-14.796,33.047-33.049,33.047c-18.251,0-33.046-14.796-33.046-33.047C164.915,96.9,179.709,82.105,197.96,82.105z
		 M65.771,115.153c0-18.253,14.796-33.048,33.049-33.048c18.25,0,33.046,14.795,33.046,33.048c0,18.251-14.796,33.047-33.046,33.047
		C80.567,148.2,65.771,133.404,65.771,115.153z"/>
</g>
<g>
</g>
<g>
</g>
<g>
</g>
<g>
</g>
<g>
</g>
<g>
</g>
<g>
</g>
<g>
</g>
<g>
</g>
<g>
</g>
<g>
</g>
<g>
</g>
<g>
</g>
<g>
</g>
<g>
</g>
</svg>
