<?xml version="1.0" encoding="iso-8859-1"?>
<!-- Generator: Adobe Illustrator 17.1.0, SVG Export Plug-In . SVG Version: 6.00 Build 0)  -->
<!DOCTYPE svg PUBLIC "-//W3C//DTD SVG 1.1//EN" "http://www.w3.org/Graphics/SVG/1.1/DTD/svg11.dtd">
<svg version="1.1" id="Capa_1" xmlns="http://www.w3.org/2000/svg" xmlns:xlink="http://www.w3.org/1999/xlink" x="0px" y="0px"
	 viewBox="0 0 297 297" style="enable-background:new 0 0 297 297;" xml:space="preserve">
<g>
	<path d="M258.591,170.705c0-39.765-15.888-74.738-39.919-94.955L202.756,32h3.986c8.837,0,16-7.163,16-16s-7.163-16-16-16h-72
		c-8.837,0-16,7.163-16,16c0,6.914,4.393,12.785,10.533,15.021c0.268-0.006,0.532-0.021,0.801-0.021
		c19.482,0,35.333,15.851,35.333,35.333s-15.851,35.333-35.333,35.333c-8.88,0-16.999-3.301-23.213-8.729
		c-14.858,20.291-23.97,47.656-23.97,77.768c0,41.271,17.113,77.383,42.686,97.189c-4.13,2.894-6.837,7.68-6.837,13.105
		c0,8.837,7.163,16,16,16h72c8.837,0,16-7.163,16-16c0-5.426-2.707-10.211-6.836-13.104
		C241.478,248.088,258.591,211.976,258.591,170.705z"/>
	<path d="M103.555,42.834L38.409,70.017V181c0,8.837,7.163,16,16,16s16-7.163,16-16V91.317l26.963-11.21
		c-1.799-4.234-2.796-8.89-2.796-13.773C94.577,57.317,97.976,49.083,103.555,42.834z"/>
	<path d="M130.076,85.667c10.66,0,19.333-8.673,19.333-19.333c0-10.66-8.673-19.333-19.333-19.333
		c-10.66,0-19.333,8.673-19.333,19.333C110.743,76.994,119.416,85.667,130.076,85.667z"/>
</g>
<g>
</g>
<g>
</g>
<g>
</g>
<g>
</g>
<g>
</g>
<g>
</g>
<g>
</g>
<g>
</g>
<g>
</g>
<g>
</g>
<g>
</g>
<g>
</g>
<g>
</g>
<g>
</g>
<g>
</g>
</svg>
