<?xml version="1.0" encoding="iso-8859-1"?>
<!-- Generator: Adobe Illustrator 17.1.0, SVG Export Plug-In . SVG Version: 6.00 Build 0)  -->
<!DOCTYPE svg PUBLIC "-//W3C//DTD SVG 1.1//EN" "http://www.w3.org/Graphics/SVG/1.1/DTD/svg11.dtd">
<svg version="1.1" id="Capa_1" xmlns="http://www.w3.org/2000/svg" xmlns:xlink="http://www.w3.org/1999/xlink" x="0px" y="0px"
	 viewBox="0 0 296.124 296.124" style="enable-background:new 0 0 296.124 296.124;" xml:space="preserve">
<g>
	<path d="M288.124,74.562h-248c-4.418,0-8,3.582-8,8s3.582,8,8,8h115.667v16h-31.793c-13.66,0-24.723,11.37-24.867,25H29.942
		l-15.478-21.215c-2.604-3.569-7.608-4.354-11.178-1.748c-3.569,2.604-4.352,7.608-1.748,11.178l20.271,27.785h76.982v15.73
		c0,13.457,11,24.77,24,25.246v17.023h-14.667c-4.418,0-8,3.582-8,8s3.582,8,8,8h136c4.418,0,8-3.582,8-8s-3.582-8-8-8h-14.333v-17
		h8.418c13.75,0,20.85-10.659,15.777-23.439l-0.616-1.561H147.791v-32h92.949l-0.643-1.629
		c-5.072-12.779-20.473-23.371-34.223-23.371h-34.084v-16h116.333c4.418,0,8-3.582,8-8S292.542,74.562,288.124,74.562z
		 M213.791,188.562v17h-75v-17H213.791z"/>
</g>
<g>
</g>
<g>
</g>
<g>
</g>
<g>
</g>
<g>
</g>
<g>
</g>
<g>
</g>
<g>
</g>
<g>
</g>
<g>
</g>
<g>
</g>
<g>
</g>
<g>
</g>
<g>
</g>
<g>
</g>
</svg>
