<?xml version="1.0" encoding="iso-8859-1"?>
<!-- Generator: Adobe Illustrator 17.1.0, SVG Export Plug-In . SVG Version: 6.00 Build 0)  -->
<!DOCTYPE svg PUBLIC "-//W3C//DTD SVG 1.1//EN" "http://www.w3.org/Graphics/SVG/1.1/DTD/svg11.dtd">
<svg version="1.1" id="Capa_1" xmlns="http://www.w3.org/2000/svg" xmlns:xlink="http://www.w3.org/1999/xlink" x="0px" y="0px"
	 viewBox="0 0 295.794 295.794" style="enable-background:new 0 0 295.794 295.794;" xml:space="preserve">
<g>
	<path d="M246.126,179.55c-1.063-3.308-4.141-5.55-7.615-5.55h-63.409l-19.596-60.309c-0.741-2.281-2.452-4.031-4.578-4.905
		c6.313-1.321,11.053-6.915,11.053-13.619c0-6.479-4.6-11.907-10.594-13.458L229.896,59V0h-164v24h74.333c4.418,0,8,3.582,8,8
		s-3.582,8-8,8H65.896v19l78.687,22.664c-6.084,1.488-10.52,6.961-10.52,13.503c0,6.63,4.681,12.167,10.888,13.566
		c-2.185,0.854-3.927,2.631-4.683,4.958L120.693,174H57.284c-3.474,0-6.551,2.241-7.615,5.548c-1.064,3.307,0.126,6.923,2.947,8.949
		l51.245,36.814l-19.57,59.815c-1.078,3.296,0.09,6.911,2.893,8.953c2.803,2.043,6.603,2.047,9.409,0.01l51.294-37.213
		l51.302,37.384c1.404,1.022,3.058,1.534,4.712,1.534c1.649,0,3.3-0.509,4.701-1.527c2.808-2.039,3.98-5.654,2.904-8.953
		l-19.576-60.027l51.246-36.787C245.998,186.473,247.19,182.856,246.126,179.55z"/>
</g>
<g>
</g>
<g>
</g>
<g>
</g>
<g>
</g>
<g>
</g>
<g>
</g>
<g>
</g>
<g>
</g>
<g>
</g>
<g>
</g>
<g>
</g>
<g>
</g>
<g>
</g>
<g>
</g>
<g>
</g>
</svg>
