<?xml version="1.0" encoding="iso-8859-1"?>
<!-- Generator: Adobe Illustrator 17.1.0, SVG Export Plug-In . SVG Version: 6.00 Build 0)  -->
<!DOCTYPE svg PUBLIC "-//W3C//DTD SVG 1.1//EN" "http://www.w3.org/Graphics/SVG/1.1/DTD/svg11.dtd">
<svg version="1.1" id="Capa_1" xmlns="http://www.w3.org/2000/svg" xmlns:xlink="http://www.w3.org/1999/xlink" x="0px" y="0px"
	 viewBox="0 0 299 299" style="enable-background:new 0 0 299 299;" xml:space="preserve">
<g>
	<polygon points="67.162,0 67.162,59 141.162,80.264 141.162,0 	"/>
	<path d="M227.021,198.267l22.193-34.208c1.791-2.76,1.709-6.335-0.205-9.01c-1.914-2.676-5.27-3.906-8.461-3.102l-59.77,15.066
		l15.129-59.928c0.806-3.193-0.428-6.555-3.108-8.469c-2.68-1.914-6.427-1.989-9.185-0.19l-26.451,17.143V80.359l74-21.359V0h-74
		v80.455l-7.834,2.213l-8.166-2.309v35.396l-26.26-16.253c-2.775-1.708-6.225-1.56-8.849,0.371c-2.624,1.931-3.774,5.261-2.97,8.418
		l14.965,58.684l-59.601-15.028c-3.198-0.81-6.543,0.426-8.457,3.102c-1.915,2.676-1.993,6.251-0.202,9.011l22.204,34.207
		l-21.162,34.529c-1.7,2.775-1.55,6.305,0.381,8.926c1.53,2.077,3.937,3.255,6.441,3.255c0.655,0,1.316-0.08,1.971-0.247
		l58.251-14.809l-14.749,58.129c-0.8,3.152,0.388,6.472,3.005,8.401c2.617,1.931,6.144,2.076,8.918,0.383l34.543-21.109
		l34.222,22.061c1.323,0.854,2.832,1.215,4.339,1.215c0.007,0,0.017,0,0.019,0c4.419,0,8-3.519,8-7.936
		c0-0.88-0.142-1.662-0.403-2.454l-14.784-58.724l58.401,14.845c0.654,0.166,1.315,0.246,1.971,0.246c2.503,0,4.91-1.178,6.44-3.255
		c1.931-2.62,2.082-6.148,0.381-8.924L227.021,198.267z"/>
</g>
<g>
</g>
<g>
</g>
<g>
</g>
<g>
</g>
<g>
</g>
<g>
</g>
<g>
</g>
<g>
</g>
<g>
</g>
<g>
</g>
<g>
</g>
<g>
</g>
<g>
</g>
<g>
</g>
<g>
</g>
</svg>
