<?xml version="1.0" encoding="iso-8859-1"?>
<!-- Generator: Adobe Illustrator 17.1.0, SVG Export Plug-In . SVG Version: 6.00 Build 0)  -->
<!DOCTYPE svg PUBLIC "-//W3C//DTD SVG 1.1//EN" "http://www.w3.org/Graphics/SVG/1.1/DTD/svg11.dtd">
<svg version="1.1" id="Capa_1" xmlns="http://www.w3.org/2000/svg" xmlns:xlink="http://www.w3.org/1999/xlink" x="0px" y="0px"
	 viewBox="0 0 296 296" style="enable-background:new 0 0 296 296;" xml:space="preserve">
<g>
	<path d="M182,149v-0.5c0-0.336-0.016-0.667-0.025-1c0.01-0.333,0.025-0.664,0.025-1V63c0-63-67-63-67-63v146.5
		c0,0.336,0.016,0.667,0.025,1c-0.01,0.333-0.025,0.664-0.025,1v0.5H182z"/>
	<path d="M99,165v16v16h16v65.5c0,18.502,14.998,33.5,33.5,33.5s33.5-14.998,33.5-33.5V197h15v-16v-16H99z"/>
</g>
<g>
</g>
<g>
</g>
<g>
</g>
<g>
</g>
<g>
</g>
<g>
</g>
<g>
</g>
<g>
</g>
<g>
</g>
<g>
</g>
<g>
</g>
<g>
</g>
<g>
</g>
<g>
</g>
<g>
</g>
</svg>
