<?xml version="1.0" encoding="iso-8859-1"?>
<!-- Generator: Adobe Illustrator 17.1.0, SVG Export Plug-In . SVG Version: 6.00 Build 0)  -->
<!DOCTYPE svg PUBLIC "-//W3C//DTD SVG 1.1//EN" "http://www.w3.org/Graphics/SVG/1.1/DTD/svg11.dtd">
<svg version="1.1" id="Capa_1" xmlns="http://www.w3.org/2000/svg" xmlns:xlink="http://www.w3.org/1999/xlink" x="0px" y="0px"
	 viewBox="0 0 298 298" style="enable-background:new 0 0 298 298;" xml:space="preserve">
<g>
	<path d="M298,124.5h-67.112c-3.061-10.313-12.671-18-23.978-18H149v-6c0-13.807-10.859-25-24.667-25h-33
		C77.525,75.5,66,86.693,66,100.5v6H25.223C11.473,106.5,0,118.064,0,131.814v32.746c0,13.75,9.312,18.527,20.558,10.616
		l7.273-5.077c7.964-5.602,20.566-10.47,32.114-12.842l-7.415,52.216c-1.011,7.078,4.026,13.026,11.176,13.026h11.552
		c7.15,0,13.827-5.948,14.838-13.026l5.734-40.308c0.705,3.616,2.066,7.082,4.061,10.219c1.525,2.397,4.113,3.708,6.759,3.708
		c1.469,0,2.954-0.404,4.285-1.25c3.729-2.371,4.828-7.316,2.458-11.044c-1.392-2.188-2.127-4.725-2.127-7.337
		c0-7.558,6.148-13.706,13.706-13.706c0.116,0,0.229-0.013,0.345-0.018l6.756,46.874c1.021,7.077,7.705,12.888,14.855,12.888h12.347
		c7.15,0,12.165-5.811,11.145-12.888l-5.781-40.112h42.272c10.563,0,19.644-6.71,23.289-16H298V124.5z M82.333,99.5
		c0-4.418,3.582-8,8-8h34c4.418,0,8,3.582,8,8s-3.582,8-8,8h-34C85.915,107.5,82.333,103.918,82.333,99.5z"/>
</g>
<g>
</g>
<g>
</g>
<g>
</g>
<g>
</g>
<g>
</g>
<g>
</g>
<g>
</g>
<g>
</g>
<g>
</g>
<g>
</g>
<g>
</g>
<g>
</g>
<g>
</g>
<g>
</g>
<g>
</g>
</svg>
