<?xml version="1.0" encoding="iso-8859-1"?>
<!-- Generator: Adobe Illustrator 17.1.0, SVG Export Plug-In . SVG Version: 6.00 Build 0)  -->
<!DOCTYPE svg PUBLIC "-//W3C//DTD SVG 1.1//EN" "http://www.w3.org/Graphics/SVG/1.1/DTD/svg11.dtd">
<svg version="1.1" id="Capa_1" xmlns="http://www.w3.org/2000/svg" xmlns:xlink="http://www.w3.org/1999/xlink" x="0px" y="0px"
	 viewBox="0 0 298.166 298.166" style="enable-background:new 0 0 298.166 298.166;" xml:space="preserve">
<g>
	<path d="M280.245,149.811L297.424,0.478l-148.34,18.207L0.744,0.478l17.178,149.333L0,297.688l149.084-18.818l149.082,18.818
		L280.245,149.811z M68.8,120.719c-3.93,0-7.36-3.021-7.91-7.021c-0.61-4.38,2.45-8.18,6.83-8.79c4.37-0.6,8.41,2.07,9.02,7.07
		c0,0,0,0-0.011,0c0.61,0-2.45,8.17-6.819,8.78C69.54,120.809,69.17,120.719,68.8,120.719z M82.56,158.419
		c-1.05,0.46-2.14,0.67-3.21,0.67c-3.08,0-6.02-1.79-7.33-4.79c-1.779-4.04,0.061-8.76,4.11-10.54c4.05-1.77,8.77,0.07,10.54,4.12
		C88.439,151.919,86.6,156.639,82.56,158.419z M68.834,91.646c-11.321,0-20.499-9.178-20.499-20.499s9.178-20.499,20.499-20.499
		s20.499,9.178,20.499,20.499S80.155,91.646,68.834,91.646z M107.41,189.539c-1.561,1.601-3.641,2.41-5.721,2.41
		c-2.02,0-4.029-0.76-5.59-2.28c-3.16-3.08-3.22-8.15-0.14-11.31c3.09-3.16,8.149-3.22,11.31-0.141
		C110.439,181.309,110.5,186.369,107.41,189.539z M142.66,208.039c-1.23,3.18-4.261,5.13-7.471,5.13c-0.96,0-1.93-0.17-2.87-0.529
		c-4.119-1.591-6.18-6.21-4.6-10.341c1.59-4.119,6.22-6.18,10.34-4.6C142.18,199.289,144.24,203.909,142.66,208.039z
		 M174.13,221.389c-0.19,0-0.38-0.011-0.57-0.021c-4.41-0.32-7.73-4.14-7.42-8.55c0.311-4.4,4.14-7.72,8.55-7.41
		c4.4,0.31,7.721,4.14,7.41,8.54C181.8,218.169,178.29,221.389,174.13,221.389z M245.157,233.656c3.124,3.124,3.124,8.189,0,11.314
		c-1.563,1.561-3.609,2.343-5.657,2.343c-2.048,0-4.095-0.781-5.657-2.343l-19.509-19.509l-19.509,19.509
		c-1.563,1.561-3.609,2.343-5.657,2.343c-2.048,0-4.095-0.781-5.657-2.343c-3.124-3.125-3.124-8.189,0-11.314l19.508-19.509
		l-19.508-19.507c-3.124-3.124-3.124-8.189,0-11.314c3.125-3.123,8.189-3.123,11.314,0l19.508,19.507l19.51-19.509
		c3.125-3.123,8.189-3.123,11.314,0c3.124,3.125,3.124,8.189,0,11.314l-19.509,19.509L245.157,233.656z"/>
</g>
<g>
</g>
<g>
</g>
<g>
</g>
<g>
</g>
<g>
</g>
<g>
</g>
<g>
</g>
<g>
</g>
<g>
</g>
<g>
</g>
<g>
</g>
<g>
</g>
<g>
</g>
<g>
</g>
<g>
</g>
</svg>
