<?xml version="1.0" encoding="iso-8859-1"?>
<!-- Generator: Adobe Illustrator 17.1.0, SVG Export Plug-In . SVG Version: 6.00 Build 0)  -->
<!DOCTYPE svg PUBLIC "-//W3C//DTD SVG 1.1//EN" "http://www.w3.org/Graphics/SVG/1.1/DTD/svg11.dtd">
<svg version="1.1" id="Capa_1" xmlns="http://www.w3.org/2000/svg" xmlns:xlink="http://www.w3.org/1999/xlink" x="0px" y="0px"
	 viewBox="0 0 299 299" style="enable-background:new 0 0 299 299;" xml:space="preserve">
<g>
	<path d="M291,142h-25.886c-3.472-57.697-49.447-104.087-107.447-108.051V8c0-4.418-3.582-8-8-8c-4.418,0-8,3.582-8,8v25.949
		C84.667,37.913,38.357,84.303,34.886,142H8c-4.418,0-8,3.582-8,8s3.582,8,8,8h27.017c4.402,56.767,49.65,102.133,106.65,106.051
		V291c0,4.418,3.582,8,8,8c4.418,0,8-3.582,8-8v-26.949c57-3.918,102.914-49.284,107.316-106.051H291c4.418,0,8-3.582,8-8
		S295.418,142,291,142z M249.083,142h-16.984c-3.344-39.536-34.432-71.208-74.432-75.022V49.99
		C206.667,53.893,245.664,93.129,249.083,142z M141.667,142h-24.683c2.684-12.666,12.683-22.727,24.683-25.784V142z M141.667,158
		v23.784c-12-2.895-20.941-12.067-24.189-23.784H141.667z M157.667,158h24.854c-3.247,11.717-12.854,20.89-24.854,23.784V158z
		 M157.667,142v-25.784c13,3.058,22.666,13.118,25.349,25.784H157.667z M141.667,49.99v16.987
		c-39,3.814-70.422,35.486-73.766,75.022H50.917C54.336,93.129,93.667,53.893,141.667,49.99z M51.079,158h17.005
		c4.213,38.602,35.583,69.273,73.583,73.023v16.987C93.667,244.16,55.405,205.938,51.079,158z M157.667,248.01v-16.987
		c39-3.75,70.036-34.421,74.249-73.023h17.005C244.595,205.938,205.667,244.16,157.667,248.01z"/>
</g>
<g>
</g>
<g>
</g>
<g>
</g>
<g>
</g>
<g>
</g>
<g>
</g>
<g>
</g>
<g>
</g>
<g>
</g>
<g>
</g>
<g>
</g>
<g>
</g>
<g>
</g>
<g>
</g>
<g>
</g>
</svg>
