<?xml version="1.0" encoding="iso-8859-1"?>
<!-- Generator: Adobe Illustrator 17.1.0, SVG Export Plug-In . SVG Version: 6.00 Build 0)  -->
<!DOCTYPE svg PUBLIC "-//W3C//DTD SVG 1.1//EN" "http://www.w3.org/Graphics/SVG/1.1/DTD/svg11.dtd">
<svg version="1.1" id="Capa_1" xmlns="http://www.w3.org/2000/svg" xmlns:xlink="http://www.w3.org/1999/xlink" x="0px" y="0px"
	 viewBox="0 0 296 296" style="enable-background:new 0 0 296 296;" xml:space="preserve">
<g>
	<polygon points="100.71,264 112.924,296 183.744,296 195.958,264 	"/>
	<path d="M201.992,248l21.22-56.265c-4.88-2.984-10.061-5.532-15.496-7.69c-16.385,13.109-37.148,20.962-59.716,20.962
		c-22.566,0-43.331-7.853-59.716-20.961c-5.234,2.078-10.229,4.521-14.951,7.364L94.676,248H201.992z"/>
	<path d="M270.213,296c0-45-12.8-75.827-33.654-94.698L200.845,296H270.213z"/>
	<path d="M25.787,296h70.036l-35.881-95.141C38.794,219.701,25.787,250,25.787,296z"/>
	<path d="M54,83.83c0-0.275,0.018-0.545,0.02-0.819C54.018,82.736,54,82.467,54,82.191V83.83z"/>
	<path d="M242,82.191c0,0.275-0.017,0.545-0.019,0.819c0.002,0.275,0.019,0.544,0.019,0.819V82.191z"/>
	<path d="M73.067,136.612c11.163,30.57,40.499,52.395,74.933,52.395c33.727,0,62.544-20.948,74.203-50.535
		c10.938-13.183,18.019-30.194,19.491-48.976c0.168-2.141,0.268-4.302,0.287-6.485C241.58,37.091,207.705,0,164.954,0H132.8
		C90.051,0,54.441,37.091,54.02,83.011c0.021,2.165,0.124,4.31,0.298,6.433C55.783,107.38,62.621,123.692,73.067,136.612z
		 M210.667,113.123c0,15.926-12.99,28.837-28.919,28.837c-12.887,0-23.945-8.391-27.452-20.111
		c-3.01-10.058,0.268-21.694-6.171-21.977c-6.44,0.282-3.182,11.919-6.192,21.977c-3.507,11.721-14.971,20.111-27.858,20.111
		c-15.929,0-29.408-12.911-29.408-28.837V82h63.5h62.5V113.123z M147.999,57.887c-23.777-18.018-15.457-33.773-15.457-33.773
		l15.457,15.148l15.459-15.148C163.458,24.113,171.778,39.869,147.999,57.887z"/>
</g>
<g>
</g>
<g>
</g>
<g>
</g>
<g>
</g>
<g>
</g>
<g>
</g>
<g>
</g>
<g>
</g>
<g>
</g>
<g>
</g>
<g>
</g>
<g>
</g>
<g>
</g>
<g>
</g>
<g>
</g>
</svg>
