<?xml version="1.0" encoding="iso-8859-1"?>
<!-- Generator: Adobe Illustrator 17.1.0, SVG Export Plug-In . SVG Version: 6.00 Build 0)  -->
<!DOCTYPE svg PUBLIC "-//W3C//DTD SVG 1.1//EN" "http://www.w3.org/Graphics/SVG/1.1/DTD/svg11.dtd">
<svg version="1.1" id="Capa_1" xmlns="http://www.w3.org/2000/svg" xmlns:xlink="http://www.w3.org/1999/xlink" x="0px" y="0px"
	 viewBox="0 0 297.363 297.363" style="enable-background:new 0 0 297.363 297.363;" xml:space="preserve">
<g>
	<path d="M297.363,53.181h-21.667c-4.561-6.072-11.821-10-20-10h-8.333v-2c0-4.418-3.582-8-8-8s-8,3.582-8,8v2H26.696
		c-13.808,0-25.333,11.193-25.333,25v15h191.333c4.418,0,8,3.582,8,8s-3.582,8-8,8H1.363v8c0,8.108,4.03,15.312,10.013,19.88
		L0.125,239.308c-1.382,13.68,8.821,24.873,22.571,24.873h40.282c13.75,0,26.131-11.193,27.513-24.873l4.759-47.127h40.873
		c17.811,0,33.657-14.305,35.324-31.883l2.68-28.117h81.569c13.808,0,24.667-11.193,24.667-25v-1h17V53.181z M155.519,158.785
		c-0.895,9.43-9.776,17.396-19.396,17.396H96.865l4.442-44h15.89c0.831,7.797,3.438,15.291,7.664,21.935
		c1.524,2.397,4.112,3.708,6.758,3.708c1.469,0,2.955-0.404,4.286-1.251c3.727-2.371,4.827-7.315,2.456-11.044
		c-2.588-4.068-4.277-8.609-5.018-13.348h24.711L155.519,158.785z"/>
</g>
<g>
</g>
<g>
</g>
<g>
</g>
<g>
</g>
<g>
</g>
<g>
</g>
<g>
</g>
<g>
</g>
<g>
</g>
<g>
</g>
<g>
</g>
<g>
</g>
<g>
</g>
<g>
</g>
<g>
</g>
</svg>
