<?xml version="1.0" encoding="iso-8859-1"?>
<!-- Generator: Adobe Illustrator 17.1.0, SVG Export Plug-In . SVG Version: 6.00 Build 0)  -->
<!DOCTYPE svg PUBLIC "-//W3C//DTD SVG 1.1//EN" "http://www.w3.org/Graphics/SVG/1.1/DTD/svg11.dtd">
<svg version="1.1" id="Capa_1" xmlns="http://www.w3.org/2000/svg" xmlns:xlink="http://www.w3.org/1999/xlink" x="0px" y="0px"
	 viewBox="0 0 297.796 297.796" style="enable-background:new 0 0 297.796 297.796;" xml:space="preserve">
<g>
	<path d="M148.899,0C87.458,0,37.649,49.808,37.649,111.249c0,94.309,111.25,186.547,111.25,186.547s111.248-92.238,111.248-186.547
		C260.147,49.808,210.34,0,148.899,0z M148.898,203.762c-51.288,0-93.014-41.726-93.014-93.014s41.726-93.014,93.014-93.014
		s93.014,41.726,93.014,93.014S200.186,203.762,148.898,203.762z"/>
	<path d="M148.898,49.528c-33.757,0-61.22,27.463-61.22,61.22c0,33.757,27.463,61.22,61.22,61.22s61.22-27.463,61.22-61.22
		C210.118,76.991,182.655,49.528,148.898,49.528z M148.898,139.968c-16.137,0-29.22-13.083-29.22-29.22s13.083-29.22,29.22-29.22
		s29.22,13.083,29.22,29.22S165.035,139.968,148.898,139.968z"/>
</g>
<g>
</g>
<g>
</g>
<g>
</g>
<g>
</g>
<g>
</g>
<g>
</g>
<g>
</g>
<g>
</g>
<g>
</g>
<g>
</g>
<g>
</g>
<g>
</g>
<g>
</g>
<g>
</g>
<g>
</g>
</svg>
