<?xml version="1.0" encoding="iso-8859-1"?>
<!-- Generator: Adobe Illustrator 17.1.0, SVG Export Plug-In . SVG Version: 6.00 Build 0)  -->
<!DOCTYPE svg PUBLIC "-//W3C//DTD SVG 1.1//EN" "http://www.w3.org/Graphics/SVG/1.1/DTD/svg11.dtd">
<svg version="1.1" id="Capa_1" xmlns="http://www.w3.org/2000/svg" xmlns:xlink="http://www.w3.org/1999/xlink" x="0px" y="0px"
	 viewBox="0 0 297.836 297.836" style="enable-background:new 0 0 297.836 297.836;" xml:space="preserve">
<g>
	<path d="M297.819,156.836c0,0.092-0.004,0.184-0.004,0.277c0.001-0.037,0.006-0.074,0.006-0.111
		C297.821,156.946,297.819,156.891,297.819,156.836z"/>
	<path d="M140.819,0c-0.038,0-0.074,0.005-0.111,0.006c0.093,0,0.186-0.004,0.278-0.004C140.93,0.002,140.874,0,140.819,0z"/>
	<path d="M140.819,16.002C187.79,16.057,229.531,39.2,255.13,74.666c-1.344,2.428-2.072,5.218-2.072,8.189
		c0,9.235,7.412,16.914,16.598,17.115c7.709,17.293,12.056,36.697,12.156,56.697h-27.114c-0.25-41-22.073-76.791-54.623-96.703
		c0.031-0.426,0.064-0.944,0.064-1.379c0-9.36-7.589-16.994-16.948-16.994c-4.964,0-9.581,2.124-12.681,5.525
		c-9.417-2.562-18.689-3.969-29.689-3.999v15.996c0,0,0.055,0.002-0.001,0.002c8.922,0.015,17.649,1.234,25.866,3.496
		c1.843,7.366,8.528,12.829,16.464,12.829c3.012,0,5.856-0.607,8.307-1.986c28.102,17.064,46.992,47.213,47.242,83.213h-28.108
		c-0.102-11-2.428-20.168-6.516-28.916c1.527-2.545,2.421-5.605,2.421-8.789c0-9.36-7.589-16.994-16.948-16.994
		c-1.738,0-3.582,0.24-5.161,0.726c-11.893-9.593-26.565-15.395-43.565-15.473v15.991c0,0,0.054,0.004-0.001,0.004
		c12.12,0.038,23.39,4.107,32.377,10.931c-0.436,1.5-0.639,3.081-0.639,4.722c0,9.36,7.609,16.947,16.968,16.947
		c0.233,0,0.469,0.161,0.701,0.151c2.72,6.309,4.268,12.699,4.363,20.699h-25.663c-0.375-15-13.105-27.604-28.105-27.781v15.991
		c0,0,0.053,0.194-0.004,0.194c6.372,0.086,11.726,4.596,12.091,11.596h-13.087v-11.713c-7,0.667-10.928,5.813-10.928,12.047
		c0,6.685,5.34,11.956,12.025,11.956c6.686,0,12.027-5.29,12.027-12.29h16c0,16-12.617,28.29-28.125,28.29
		c-15.507,0-27.926-12.532-27.926-28.04c0-15.055,10.928-27.304,26.928-28.006v-25.663c-30,0.734-52.59,24.555-52.59,53.753
		c0,29.658,24.03,53.62,53.687,53.62c29.659,0,53.69-23.954,53.69-53.954h16c0,39-31.307,69.954-69.788,69.954
		c-38.48,0-69.588-31.224-69.588-69.704c0-38.02,29.59-68.935,68.59-69.67V59.132c-54,0.747-96.69,44.359-96.69,97.87
		c0,53.975,43.813,97.72,97.786,97.72c53.976,0,97.789-44.054,97.789-98.054h16c0,63-51.09,114.054-113.888,114.054
		c-62.796,0-113.688-51.005-113.688-113.804c0-62.334,49.69-113.041,112.69-113.786V16.018
		c-78,0.748-139.805,63.699-139.805,140.984c0,77.748,63.155,140.834,140.902,140.834c77.749,0,140.904-63.168,140.904-141.168
		h15.996c-0.048-22.846-4.998-44.562-13.855-64.148c1.908-2.742,3.035-6.069,3.035-9.664c0-9.361-7.588-16.947-16.947-16.947
		c-0.465,0-1.088,0.033-1.544,0.069C240.07,26.153,193.821,0.115,140.821,0.004V16C140.821,16,140.876,16.002,140.819,16.002z"/>
	<path d="M140.819,43.114c-0.038,0-0.074,0.005-0.111,0.006c0.093-0.001,0.186-0.004,0.278-0.004
		C140.93,43.116,140.874,43.114,140.819,43.114z"/>
	<path d="M140.819,87.214c-0.11,0-0.219,0.013-0.328,0.017c0.166-0.002,0.328-0.012,0.494-0.013
		C140.929,87.218,140.874,87.214,140.819,87.214z"/>
	<path d="M140.819,128.878c-0.106,0-0.21,0.012-0.314,0.016c0.159-0.003,0.318-0.011,0.479-0.012
		C140.928,128.882,140.873,128.878,140.819,128.878z"/>
</g>
<g>
</g>
<g>
</g>
<g>
</g>
<g>
</g>
<g>
</g>
<g>
</g>
<g>
</g>
<g>
</g>
<g>
</g>
<g>
</g>
<g>
</g>
<g>
</g>
<g>
</g>
<g>
</g>
<g>
</g>
</svg>
