<?xml version="1.0" encoding="iso-8859-1"?>
<!-- Generator: Adobe Illustrator 17.1.0, SVG Export Plug-In . SVG Version: 6.00 Build 0)  -->
<!DOCTYPE svg PUBLIC "-//W3C//DTD SVG 1.1//EN" "http://www.w3.org/Graphics/SVG/1.1/DTD/svg11.dtd">
<svg version="1.1" id="Capa_1" xmlns="http://www.w3.org/2000/svg" xmlns:xlink="http://www.w3.org/1999/xlink" x="0px" y="0px"
	 viewBox="0 0 296.662 296.662" style="enable-background:new 0 0 296.662 296.662;" xml:space="preserve">
<g>
	<path d="M148.33,0.001C66.411,0.001,0,66.409,0,148.331c0,81.921,66.411,148.33,148.33,148.33
		c81.921,0,148.332-66.409,148.332-148.33C296.662,66.409,230.251,0.001,148.33,0.001z M87.661,265.997l41.168-79.269
		c-13.979-7.13-23.581-21.659-23.581-38.397c0-0.585,0.021-1.166,0.044-1.745l-89.163-3.979c1.403-33.198,14.99-64.208,38.63-87.849
		c6.913-6.912,14.458-12.961,22.501-18.103l48.06,75.28c6.663-4.229,14.553-6.689,23.012-6.689c8.56,0,16.536,2.52,23.249,6.84
		l48.059-75.277c7.953,5.108,15.419,11.104,22.264,17.948c23.581,23.58,37.16,54.494,38.622,87.598l-89.161,3.978
		c0.03,0.662,0.051,1.327,0.051,1.997c0,16.428-9.245,30.732-22.802,37.998l41.165,79.264
		c-18.729,9.844-39.686,15.068-61.447,15.068C126.869,280.661,106.192,275.578,87.661,265.997z"/>
	<path d="M148.331,175.414c14.934,0,27.083-12.149,27.083-27.083c0-14.934-12.149-27.083-27.083-27.083
		c-14.934,0-27.083,12.149-27.083,27.083C121.248,163.265,133.397,175.414,148.331,175.414z"/>
</g>
<g>
</g>
<g>
</g>
<g>
</g>
<g>
</g>
<g>
</g>
<g>
</g>
<g>
</g>
<g>
</g>
<g>
</g>
<g>
</g>
<g>
</g>
<g>
</g>
<g>
</g>
<g>
</g>
<g>
</g>
</svg>
