<?xml version="1.0" encoding="iso-8859-1"?>
<!-- Generator: Adobe Illustrator 17.1.0, SVG Export Plug-In . SVG Version: 6.00 Build 0)  -->
<!DOCTYPE svg PUBLIC "-//W3C//DTD SVG 1.1//EN" "http://www.w3.org/Graphics/SVG/1.1/DTD/svg11.dtd">
<svg version="1.1" id="Capa_1" xmlns="http://www.w3.org/2000/svg" xmlns:xlink="http://www.w3.org/1999/xlink" x="0px" y="0px"
	 viewBox="0 0 296 296" style="enable-background:new 0 0 296 296;" xml:space="preserve">
<g>
	<path d="M288.167,232.688c-0.719,0-1.329,0.104-1.992,0.281L148.065,29.313l-137.39,203.73c-0.747-0.23-1.696-0.355-2.518-0.355
		c-4.418,0-8.156,3.582-8.156,8v18c0,4.418,3.582,8,8,8s8-3.582,8-8v-5.326l53.345-79.211c1.605,24.527,0.404,63.006-18.588,92.537
		h64.413l33.163-99.04l33.163,99.04h63.96c-19.071-29.653-20.225-68.346-18.357-92.871L280,252.861v5.826c0,4.418,3.582,8,8,8
		s8-3.582,8-8v-18C296,236.27,292.585,232.688,288.167,232.688z"/>
</g>
<g>
</g>
<g>
</g>
<g>
</g>
<g>
</g>
<g>
</g>
<g>
</g>
<g>
</g>
<g>
</g>
<g>
</g>
<g>
</g>
<g>
</g>
<g>
</g>
<g>
</g>
<g>
</g>
<g>
</g>
</svg>
