<?xml version="1.0" encoding="iso-8859-1"?>
<!-- Generator: Adobe Illustrator 17.1.0, SVG Export Plug-In . SVG Version: 6.00 Build 0)  -->
<!DOCTYPE svg PUBLIC "-//W3C//DTD SVG 1.1//EN" "http://www.w3.org/Graphics/SVG/1.1/DTD/svg11.dtd">
<svg version="1.1" id="Capa_1" xmlns="http://www.w3.org/2000/svg" xmlns:xlink="http://www.w3.org/1999/xlink" x="0px" y="0px"
	 viewBox="0 0 298 298" style="enable-background:new 0 0 298 298;" xml:space="preserve">
<g>
	<path d="M298,143.975h-17v-16.051c0-12.561-9.208-22.441-21.354-22.95l-6.679-26.999H165v66H0v49h16.933
		c2.574-18.344,18.36-32.506,37.399-32.506c19.04,0,34.827,14.162,37.401,32.506h20.199c2.574-18.344,18.36-32.506,37.399-32.506
		c19.04,0,34.827,14.162,37.401,32.506h19.199c2.574-18.344,18.36-32.506,37.399-32.506c19.04,0,34.827,14.162,37.401,32.506H298
		V143.975z"/>
	<path d="M221.557,198.248c0,12.027,9.747,21.777,21.775,21.777c12.03,0,21.777-9.75,21.777-21.777
		c0-12.029-9.747-21.779-21.777-21.779C231.304,176.469,221.557,186.219,221.557,198.248z M252.017,198.248
		c0,4.797-3.889,8.684-8.685,8.684c-4.795,0-8.683-3.887-8.683-8.684c0-4.799,3.888-8.686,8.683-8.686
		C248.128,189.563,252.017,193.449,252.017,198.248z"/>
	<path d="M54.332,176.469c-12.028,0-21.775,9.75-21.775,21.779c0,12.027,9.747,21.777,21.775,21.777
		c12.03,0,21.777-9.75,21.777-21.777C76.109,186.219,66.362,176.469,54.332,176.469z M63.017,198.248
		c0,4.797-3.889,8.684-8.685,8.684c-4.795,0-8.683-3.887-8.683-8.684c0-4.799,3.888-8.686,8.683-8.686
		C59.128,189.563,63.017,193.449,63.017,198.248z"/>
	<path d="M149.332,176.469c-12.028,0-21.775,9.75-21.775,21.779c0,12.027,9.747,21.777,21.775,21.777
		c12.03,0,21.777-9.75,21.777-21.777C171.109,186.219,161.362,176.469,149.332,176.469z M158.017,198.248
		c0,4.797-3.889,8.684-8.685,8.684c-4.795,0-8.683-3.887-8.683-8.684c0-4.799,3.888-8.686,8.683-8.686
		C154.128,189.563,158.017,193.449,158.017,198.248z"/>
	<path d="M25.888,127.975l14.733-15.837c3.746,8.72,12.404,14.837,22.488,14.837h61.558c13.516,0,24.472-10.982,24.472-24.498
		c0-13.516-10.956-24.502-24.472-24.502H63.109c-9.715,0-18.108,5.678-22.06,13.891L25.888,77.975H0.889l23.75,24.625l-23.75,25.375
		H25.888z M63.333,93.975h62c4.418,0,8,3.582,8,8s-3.582,8-8,8h-62c-4.418,0-8-3.582-8-8S58.915,93.975,63.333,93.975z"/>
</g>
<g>
</g>
<g>
</g>
<g>
</g>
<g>
</g>
<g>
</g>
<g>
</g>
<g>
</g>
<g>
</g>
<g>
</g>
<g>
</g>
<g>
</g>
<g>
</g>
<g>
</g>
<g>
</g>
<g>
</g>
</svg>
